<svg width="102" height="26" viewBox="0 0 102 26" fill="none" xmlns="http://www.w3.org/2000/svg">
<path d="M26.5469 23H22.2188L15.5 16.5938H5.6875V13.4375H18.5469C19.2135 13.4375 19.8385 13.3125 20.4219 13.0625C21.0052 12.8021 21.5104 12.4531 21.9375 12.0156C22.375 11.5781 22.7188 11.0677 22.9688 10.4844C23.2188 9.89062 23.3438 9.26042 23.3438 8.59375C23.3438 7.92708 23.2188 7.30208 22.9688 6.71875C22.7188 6.13542 22.375 5.63021 21.9375 5.20312C21.5104 4.76562 21.0052 4.42188 20.4219 4.17188C19.8385 3.92188 19.2135 3.79688 18.5469 3.79688H3.89062V23H0.6875V0.59375H18.5469C19.651 0.59375 20.6875 0.807292 21.6562 1.23438C22.625 1.65104 23.4688 2.22396 24.1875 2.95312C24.9167 3.67188 25.4896 4.51562 25.9062 5.48438C26.3333 6.45312 26.5469 7.48958 26.5469 8.59375C26.5469 9.59375 26.375 10.5417 26.0312 11.4375C25.6875 12.3229 25.2135 13.1198 24.6094 13.8281C24.0052 14.526 23.2917 15.1094 22.4688 15.5781C21.6562 16.0365 20.776 16.3438 19.8281 16.5L26.5469 23ZM48.6406 23H30.2656V5.34375H48.6406V8.5625H33.5V19.7656H48.6406V23ZM46.5938 15.7031H35.0156V12.4688H46.5938V15.7031ZM71.5 17.8125C71.5 18.5312 71.3646 19.2083 71.0938 19.8438C70.8229 20.4688 70.4531 21.0156 69.9844 21.4844C69.526 21.9531 68.9792 22.3229 68.3438 22.5938C67.7188 22.8646 67.0469 23 66.3281 23H51.375V19.7969H66.3281C66.6094 19.7969 66.8698 19.75 67.1094 19.6562C67.3594 19.5521 67.5729 19.4115 67.75 19.2344C67.9375 19.0469 68.0833 18.8333 68.1875 18.5938C68.2917 18.3542 68.3438 18.0938 68.3438 17.8125C68.3438 17.5312 68.2917 17.2708 68.1875 17.0312C68.0833 16.7812 67.9375 16.5677 67.75 16.3906C67.5729 16.2031 67.3594 16.0573 67.1094 15.9531C66.8698 15.849 66.6094 15.7969 66.3281 15.7969H56.5312C55.8229 15.7969 55.1562 15.6615 54.5312 15.3906C53.9062 15.1198 53.3594 14.75 52.8906 14.2812C52.4219 13.8021 52.0521 13.2448 51.7812 12.6094C51.5104 11.974 51.375 11.2969 51.375 10.5781C51.375 9.88021 51.5104 9.21875 51.7812 8.59375C52.0521 7.95833 52.4219 7.40625 52.8906 6.9375C53.3594 6.46875 53.9062 6.09896 54.5312 5.82812C55.1562 5.54688 55.8229 5.40625 56.5312 5.40625H70.3281V8.5625H56.5312C56.2604 8.5625 56 8.61979 55.75 8.73438C55.5104 8.83854 55.3021 8.98438 55.125 9.17188C54.9479 9.34896 54.8073 9.5625 54.7031 9.8125C54.599 10.0521 54.5469 10.3073 54.5469 10.5781C54.5469 10.8594 54.599 11.125 54.7031 11.375C54.8073 11.6146 54.9479 11.8281 55.125 12.0156C55.3021 12.1927 55.5104 12.3333 55.75 12.4375C56 12.5417 56.2604 12.5938 56.5312 12.5938H66.3281C67.0469 12.5938 67.7188 12.7344 68.3438 13.0156C68.9792 13.2865 69.526 13.6615 69.9844 14.1406C70.4531 14.6094 70.8229 15.1615 71.0938 15.7969C71.3646 16.4323 71.5 17.1042 71.5 17.8125Z" fill="black"/>
<path d="M95.375 25.6875L92.5 22.9688C92.375 22.9896 92.2396 23 92.0938 23C91.9583 23 91.8281 23 91.7031 23H84.25C82.6979 23 81.2865 22.7083 80.0156 22.125C78.7448 21.5417 77.6562 20.7448 76.75 19.7344C75.8542 18.724 75.1615 17.5365 74.6719 16.1719C74.1823 14.8073 73.9375 13.349 73.9375 11.7969C73.9375 10.2552 74.1823 8.80729 74.6719 7.45312C75.1615 6.08854 75.8542 4.90104 76.75 3.89062C77.6562 2.86979 78.7448 2.06771 80.0156 1.48438C81.2865 0.890625 82.6979 0.59375 84.25 0.59375H91.7031C93.2448 0.59375 94.6458 0.890625 95.9062 1.48438C97.1667 2.06771 98.2448 2.86979 99.1406 3.89062C100.047 4.90104 100.745 6.08854 101.234 7.45312C101.724 8.80729 101.969 10.2552 101.969 11.7969C101.969 12.9531 101.828 14.0625 101.547 15.125C101.276 16.1771 100.88 17.151 100.359 18.0469C99.8385 18.9323 99.2031 19.724 98.4531 20.4219C97.7135 21.1094 96.8802 21.6719 95.9531 22.1094L99.7031 25.6875H95.375ZM98.7656 11.7969C98.7656 10.6927 98.6042 9.65625 98.2812 8.6875C97.9583 7.71875 97.4896 6.875 96.875 6.15625C96.2708 5.42708 95.5312 4.85417 94.6562 4.4375C93.7917 4.01042 92.8073 3.79688 91.7031 3.79688H84.25C83.1458 3.79688 82.151 4.01042 81.2656 4.4375C80.3906 4.85417 79.6458 5.42708 79.0312 6.15625C78.4271 6.875 77.9583 7.71875 77.625 8.6875C77.3021 9.65625 77.1406 10.6927 77.1406 11.7969C77.1406 12.901 77.3021 13.9427 77.625 14.9219C77.9583 15.8906 78.4271 16.7396 79.0312 17.4688C79.6458 18.1875 80.3906 18.7552 81.2656 19.1719C82.151 19.5885 83.1458 19.7969 84.25 19.7969H89.1719L86.125 16.8906H90.6094L93.3906 19.6094C94.2344 19.4115 94.9896 19.0729 95.6562 18.5938C96.3229 18.1042 96.8854 17.5156 97.3438 16.8281C97.8125 16.1406 98.1667 15.3698 98.4062 14.5156C98.6458 13.6615 98.7656 12.7552 98.7656 11.7969Z" fill="#2592F7"/>
</svg>
